<svg width="275" height="144" viewBox="0 0 275 144" fill="none" xmlns="http://www.w3.org/2000/svg">
<path d="M114.345 89.9924C114.684 89.8121 115.079 89.9418 115.815 89.9449C116.679 89.9608 117.64 89.518 118.784 88.9096C119.992 88.2673 121.616 87.3087 122.629 86.6069C122.647 86.8963 122.74 87.3772 122.854 87.6427C122.045 88.1407 120.261 89.1571 119.191 89.7261C117.941 90.3908 116.973 90.7694 116.039 90.7767C115.475 90.764 114.979 90.6476 114.746 90.7715C114.385 90.9631 114.17 91.7844 113.972 92.6644L112.999 92.1895C113.338 91.1664 113.805 90.2797 114.345 89.9924ZM109.005 84.0386L109.41 83.293C110.22 83.4606 111.264 83.7887 111.825 84.1022L111.405 84.9233C110.865 84.5986 109.837 84.2486 109.005 84.0386ZM112.685 86.0776L114.887 90.2204L114.114 90.6317L112.306 87.2305L110.939 87.9573L110.544 87.2156L112.685 86.0776ZM111.912 83.4987L118.798 79.8369L119.198 80.5891L112.311 84.251L111.912 83.4987ZM116.864 81.0556L117.743 80.792C118.54 84.3097 117.841 87.0328 115.682 89.567C115.507 89.4426 115.072 89.2119 114.823 89.1269C116.987 86.8073 117.659 84.262 116.864 81.0556ZM113.539 80.7309L114.167 80.0978C114.722 80.4007 115.415 80.8611 115.778 81.1848L115.135 81.8934C114.788 81.5478 114.094 81.0606 113.539 80.7309ZM113.198 85.1521L113.501 84.3662C116.063 84.6616 119.545 85.2025 121.426 85.7244L121.111 86.6396C119.314 86.0726 115.831 85.4512 113.198 85.1521ZM121.596 82.2093L130.973 77.2236L131.356 77.944L121.979 82.9298L121.596 82.2093ZM127.319 81.5989L131.282 79.492L131.654 80.1912L127.691 82.2982L127.319 81.5989ZM126.13 80.2061L126.935 79.778L129.07 83.7936L128.265 84.2218L126.13 80.2061ZM124.972 83.0374C126.542 84.4314 128.115 84.0162 130.197 82.9226C130.6 82.7085 132.814 81.5311 133.36 81.2275C133.339 81.4696 133.398 81.8869 133.479 82.1425L130.566 83.6918C128.086 85.01 126.409 85.3312 124.444 83.6304L124.972 83.0374ZM123.992 82.2943L124.849 81.9883C125.445 83.9274 125.381 85.6468 124.666 87.1142C124.47 87.0278 124.011 86.9051 123.763 86.8737C124.498 85.5455 124.545 83.9983 123.992 82.2943ZM122.316 79.0133L122.777 79.8821L128.298 76.947L127.836 76.0782L122.316 79.0133ZM121.555 77.5829L122.011 78.4412L127.532 75.506L127.075 74.6478L121.555 77.5829ZM120.46 77.3903L127.559 73.6157L129.424 77.1228L122.325 80.8973L120.46 77.3903ZM131.862 76.3155L141.557 71.1607L142.019 72.0295L132.324 77.1843L131.862 76.3155ZM147.147 68.664L151.248 66.4838L151.637 67.2149L147.536 69.3951L147.147 68.664ZM142.752 68.5003L145.581 66.9962L145.981 67.7484L143.152 69.2526L142.752 68.5003ZM143.834 70.5347L146.758 68.9798L147.158 69.732L144.234 71.2869L143.834 70.5347ZM145.858 63.8864L148.347 62.5625L148.725 63.2724L146.235 64.5963L145.858 63.8864ZM151.089 66.5683L151.237 66.4894L151.358 66.3844L151.984 66.3097C152.638 69.4552 151.445 71.992 149.459 73.9314C149.267 73.7752 148.907 73.5587 148.653 73.4631C150.542 71.7516 151.712 69.3496 151.162 66.706L151.089 66.5683ZM148.647 68.7499C150.299 70.1955 152.444 70.727 154.755 70.1913C154.649 70.4516 154.595 70.8878 154.591 71.1617C152.15 71.6308 149.921 70.9673 148.06 69.3068L148.647 68.7499ZM141.345 66.748L142.227 66.5917L146.846 75.2799L146.094 75.6799L141.345 66.748ZM143.981 73.8271C145.003 73.066 146.557 71.8729 148.036 70.7193L148.457 71.4334C147.062 72.542 145.588 73.7063 144.535 74.5379L143.981 73.8271ZM145.497 64.0779L146.239 63.6836L147.05 65.2093C147.512 66.0781 147.858 67.2397 147.143 68.4762C146.958 68.3843 146.52 68.2503 146.304 68.2288C146.959 67.1334 146.675 66.2924 146.297 65.5825L145.497 64.0779ZM143.868 64.3872L144.844 64.5882C144.207 65.4845 143.148 66.5095 142.197 67.3279C142.064 67.1809 141.807 66.978 141.616 66.8754C142.488 66.0859 143.424 65.0854 143.868 64.3872ZM147.902 62.7991L148.655 62.3991L150.046 65.0162C150.153 65.2175 150.226 65.3284 150.301 65.3426C150.35 65.3575 150.409 65.3399 150.493 65.2948C150.557 65.261 150.705 65.1822 150.79 65.1371C150.885 65.0864 150.975 65.0251 151.001 64.9708C151.032 64.927 151.029 64.8198 150.983 64.6813C150.936 64.5161 150.766 64.1714 150.545 63.7314C150.756 63.7959 151.083 63.7716 151.318 63.7281C151.523 64.1632 151.739 64.6463 151.781 64.8546C151.808 65.0579 151.764 65.2308 151.65 65.3732C151.572 65.5094 151.377 65.6538 151.208 65.744C151.06 65.8229 150.784 65.9693 150.668 66.0313C150.456 66.144 150.184 66.2206 149.962 66.1617C149.746 66.1134 149.587 65.9671 149.271 65.3738L147.902 62.7991ZM159.126 59.0876L160.092 58.8863C160.825 63.4846 159.58 66.9461 156.388 70.247C156.196 70.0908 155.739 69.8445 155.468 69.744C158.676 66.652 159.871 63.3528 159.126 59.0876ZM154.344 61.6983C157.291 64.4804 160.97 65.6497 165.269 64.506C165.179 64.7981 165.116 65.2936 165.113 65.5943C160.636 66.6566 156.964 65.3743 153.689 62.3589L154.344 61.6983ZM151.77 62.4821L161.349 57.3893L161.765 58.1733L152.187 63.2662L151.77 62.4821ZM155.157 58.3711L155.973 57.9373L157.184 60.2153L156.368 60.6491L155.157 58.3711ZM164.981 57.0889L170.066 54.3848L170.455 55.1159L165.369 57.82L164.981 57.0889ZM164.668 60.6667L173.801 55.8104L174.201 56.5627L165.068 61.4189L164.668 60.6667ZM168.388 57.6692L169.225 57.2242L171.259 61.0491C171.512 61.5259 171.52 61.821 171.206 62.1509C170.903 62.4752 170.347 62.7844 169.446 63.2633C169.269 63.0584 168.93 62.8038 168.674 62.6545C169.406 62.2926 170.094 61.9265 170.279 61.8145C170.465 61.7025 170.495 61.6319 170.416 61.4836L168.388 57.6692ZM169.823 54.5143L170.035 54.4017L170.192 54.2635L170.92 54.3795C170.632 55.5248 170.022 56.909 169.312 57.9252C169.138 57.8276 168.819 57.739 168.636 57.7006C169.226 56.8162 169.746 55.5201 169.907 54.6733L169.823 54.5143ZM165.736 52.7325L166.573 52.2874L167.48 53.9933L166.643 54.4383L165.736 52.7325ZM162.34 56.0331L171.229 51.3065L172.553 53.7964L171.738 54.2302L170.814 52.4925L163.524 56.3685L164.448 58.1061L163.664 58.523L162.34 56.0331Z" fill="black"/>
</svg>
